<svg width="515" height="270" viewBox="0 0 515 270" fill="none" xmlns="http://www.w3.org/2000/svg">
<g clip-path="url(#clip0_113:45)">
<path d="M201.073 55.4398C203.241 51.1088 208.755 45.2283 219.324 44.0399C229.894 42.8514 231.972 49.3186 231.291 52.0905C230.61 54.8623 213.234 95.0676 210.946 100.989C208.64 106.957 200.466 105.878 198.031 102.817C196.042 100.317 191.732 95.1142 190.117 92.5331C188.503 89.9521 188.344 87.9894 189.685 84.3867C189.685 84.3866 198.906 59.7709 201.073 55.4398ZM506.428 130.928C457.69 133.147 409.163 138.698 361.189 147.541C334.207 195.069 292.333 225.848 263.89 224.759C237.958 223.766 228.669 204.408 227.821 180.574C195.02 190.97 175.378 199.105 173.028 200.113C167.103 202.654 164.206 200.94 161.784 198.258C161.345 197.771 153.135 186.948 152.817 186.467C151.695 184.771 150.453 182.99 152.059 178.581C154.68 171.386 166.051 143.209 166.051 143.209C155.181 144.202 144.468 145.753 134.007 147.732C118.391 187.216 96.5868 242.384 95.2026 245.927C92.7233 252.272 84.5357 252.541 81.1338 247.701C80.0264 246.126 71.7353 235.199 70.5822 233.559C69.0709 231.41 68.6151 229.421 69.6021 225.923C70.5462 222.578 84.0515 188.417 96.4779 156.838C82.3285 161.014 68.9833 165.781 56.7561 170.759C47.9912 192.98 37.4153 218.429 36.0928 221.53C33.7792 226.956 26.6423 228.172 22.5936 223.095C21.9438 222.28 16.6281 215.372 16.0802 214.645C13.5287 211.257 13.2169 209.392 14.3936 206.256C14.992 204.662 18.1478 196.792 22.1531 186.754C21.0585 187.328 19.983 187.898 18.9266 188.466C11.4022 191.531 3.29957 181.017 1.19643 178.343C0.28199 177.08 -0.131129 175.524 0.03655 173.976C0.204229 172.427 0.940863 170.995 2.10473 169.955C3.18142 168.982 15.6017 160.103 36.7443 149.778C38.1506 146.135 39.3982 142.856 40.3912 140.172C52.5261 107.37 68.383 68.837 70.6447 63.8503C72.9066 58.8635 77.2187 53.4649 88.4939 52.1826C99.7692 50.9002 100.226 57.2658 99.2742 60.4922C98.4533 63.2757 79.8334 109.494 69.9473 135.696C82.8396 131.003 96.0023 127.081 109.365 123.953C110.75 120.389 112.008 117.137 113.097 114.297C128.173 74.9722 146.23 29.4134 148.726 24.7111C151.22 20.0088 156.824 15.0063 168.757 13.6621C180.69 12.318 183.497 18.1775 182.883 21.1533C182.27 24.129 164.302 71.4624 149.515 108.558C149.018 109.802 147.765 112.963 145.958 117.526C154.466 116.524 163.247 115.828 172.278 115.516C173.886 115.403 175.502 115.576 177.049 116.027C181.196 117.529 191.627 121.396 195.875 122.896C199.262 124.093 201.374 127.881 199.817 132.021C198.26 136.162 187.106 164.206 187.106 164.206C187.106 164.206 202.535 158.346 230.358 150.547C233.509 133.37 239.054 116.707 244.398 104.958C287.87 9.38359 332.383 0.13479 348.499 0.00128356C385.772 -0.307638 400.381 55.1873 373.692 121.537C412.168 116.428 450.887 113.327 489.689 112.247C491.07 112.53 491.182 113.245 491.319 113.688C491.508 114.297 491.26 116.811 489.193 116.887C448.111 118.414 431.862 121.765 429.826 122.251C426.877 122.955 427.329 126.339 432.018 125.775C456.136 122.952 480.398 121.519 504.682 121.485C505.366 121.486 509.568 121.256 512.682 124.402C514.015 125.749 518.757 130.101 508.935 130.821C508.188 130.852 507.441 130.884 506.695 130.916C506.603 130.917 506.52 130.921 506.426 130.922L506.428 130.928ZM318.695 156.175C295.502 161.353 274.516 166.809 256.156 172.049C256.124 185.862 261.094 193.831 271.498 193.958C284.59 194.118 301.831 181.139 318.695 156.175ZM338.525 32.4692C314.124 33.3138 285.419 77.3515 268.632 120.599C265.608 128.39 263.121 135.713 261.182 142.495C282.11 137.404 307 132.081 335.231 127.325C338.353 120.968 341.393 114.178 344.351 106.957C361.529 64.8764 359.223 31.7528 338.525 32.4692Z" fill="white"/>
</g>
<defs>
<clipPath id="clip0_113:45">
<rect width="515" height="270" fill="white"/>
</clipPath>
</defs>
</svg>
