<?xml version="1.0" encoding="UTF-8" standalone="no"?>
<!-- Created with Inkscape (http://www.inkscape.org/) -->

<svg
   xmlns:dc="http://purl.org/dc/elements/1.1/"
   xmlns:cc="http://creativecommons.org/ns#"
   xmlns:rdf="http://www.w3.org/1999/02/22-rdf-syntax-ns#"
   xmlns:svg="http://www.w3.org/2000/svg"
   xmlns="http://www.w3.org/2000/svg"
   xmlns:sodipodi="http://sodipodi.sourceforge.net/DTD/sodipodi-0.dtd"
   xmlns:inkscape="http://www.inkscape.org/namespaces/inkscape"
   version="1.1"
   id="svg3758"
   xml:space="preserve"
   width="95.613335"
   height="43.946667"
   viewBox="0 0 95.613335 43.946667"
   sodipodi:docname="HiQ_logo_pos.svg"
   inkscape:version="0.92.2 5c3e80d, 2017-08-06"><metadata
     id="metadata3764"><rdf:RDF><cc:Work
         rdf:about=""><dc:format>image/svg+xml</dc:format><dc:type
           rdf:resource="http://purl.org/dc/dcmitype/StillImage" /><dc:title></dc:title></cc:Work></rdf:RDF></metadata><defs
     id="defs3762" /><sodipodi:namedview
     pagecolor="#ffffff"
     bordercolor="#666666"
     borderopacity="1"
     objecttolerance="10"
     gridtolerance="10"
     guidetolerance="10"
     inkscape:pageopacity="0"
     inkscape:pageshadow="2"
     inkscape:window-width="738"
     inkscape:window-height="480"
     id="namedview3760"
     showgrid="false"
     inkscape:zoom="3.8592943"
     inkscape:cx="47.806667"
     inkscape:cy="21.973333"
     inkscape:window-x="0"
     inkscape:window-y="0"
     inkscape:window-maximized="0"
     inkscape:current-layer="g3766" /><g
     id="g3766"
     inkscape:groupmode="layer"
     inkscape:label="ink_ext_XXXXXX"
     transform="matrix(1.3333333,0,0,-1.3333333,0,43.946667)"><path
       inkscape:connector-curvature="0"
       id="path3770"
       style="fill:#000000;fill-opacity:1;fill-rule:nonzero;stroke:none;stroke-width:0.1"
       d="m 1.37734,12.541 c 0,0 -0.19218,0.768 -0.768356,2.0649 -0.5773434,1.298 -0.720703,2.0675 -0.5285152,2.5949 0.1914062,0.5293 0.9121092,0.7215 2.4015612,0.2402 1.49024,-0.4805 1.25,-0.5285 1.53789,-0.2402 0.28828,0.289 0.43281,4.373 0.76953,6.6797 0.33594,2.3054 0.71993,4.2285 0.71993,4.2285 0,0 1.39335,-2.2102 1.63476,-4.0371 0.23906,-1.8262 0.38359,-6.0539 0.76836,-6.3418 0.38398,-0.2891 1.63398,-0.0481 3.123,-0.1446 1.4895,-0.0957 2.0665,-0.0957 2.3059,0.0965 0.241,0.1914 1.1055,4.9004 1.25,5.8625 0.1434,0.961 0.1434,2.0164 0.1434,2.0164 0,0 0.4804,0.4329 1.4902,-1.2488 1.009,-1.6808 1.2492,-2.7851 1.2969,-4.132 0.048,-1.3457 0.048,-2.0664 0.384,-2.2098 0.3379,-0.1445 1.0574,-0.5773 3.1238,-0.625 2.0664,-0.048 5.8137,-0.7207 6.9191,-1.1535 1.1055,-0.4324 4.6133,-2.9305 3.8926,-6.87149 -0.7219,-3.93945 -1.6281,-4.67968 -2.3066,-4.66015 -1.7297,0.04882 -2.0176,1.25 -1.4895,5.57424 0,0 0.9172,3.9742 -3.364,3.8441 C 19.973,13.934 17.9781,13.6137 17.1859,12.9723 16.773,12.6387 16.7223,10.9199 16.273,9.22461 15.6246,6.78125 14.5387,4.15625 13.6305,3.84375 12.4488,3.4375 12.6215,4.85156 12.477,5.8125 c -0.1446,0.96094 -0.1922,4.2285 0.0957,5.334 0.2882,1.1055 -0.0477,1.8258 -1.2969,1.5859 C 10.027,12.4922 8.10391,12.0117 7.9125,11.4824 7.72031,10.9551 8.34414,6.19727 7.43125,5.66797 6.51914,5.14063 5.98984,4.66016 4.9332,5.86133 3.87539,7.0625 3.5875,9.65625 3.5875,10.5703 c 0,0.9121 -0.28828,1.8262 -1.15352,1.8262 -0.86406,0 -1.05664,0.1445 -1.05664,0.1445" /><path
       inkscape:connector-curvature="0"
       id="path3772"
       style="fill:#000000;fill-opacity:1;fill-rule:nonzero;stroke:none;stroke-width:0.1"
       d="m 51.5414,13.8902 c -0.5281,-1.2496 -0.7695,-2.1636 -1.3934,-2.2593 -0.625,-0.0957 -4.466,0.9218 -6.0058,1.4898 -2.6516,0.9785 -5.1426,1.9219 -4.6613,3.4121 0.4804,1.4891 2.8351,6.2949 6.007,7.2547 3.1707,0.9621 6.2324,1.8359 7.3516,-0.7684 1.0488,-2.4414 -0.7688,-7.88 -1.2981,-9.1289 z M 38.3754,6.67773 c -2.6277,0.32618 -0.1445,6.67927 -0.1445,6.67927 0,0 -0.075,0.2871 5.3312,-1.2007 3.8445,-1.0567 5.3094,-2.46099 5.3094,-2.46099 0,0 -3.4961,-3.88281 -10.4961,-3.01758 z M 67.9742,6.15039 C 63.9859,8.69531 53.9918,10.377 53.9918,10.377 c 0,0 2.1375,4.5355 2.2109,9.1304 0.0496,3.1375 -0.7695,5.4297 -1.298,6.2469 -1.202,1.8574 -0.5945,3.3652 -4.0359,3.2187 -0.8653,-0.0359 0.7656,4.0754 0.0964,3.9883 -0.6699,-0.0867 -2.5468,-0.6726 -4.95,-2.8359 -2.0488,-1.8438 -5.0929,-4.5645 -5.9101,-5.5242 0,0 -2.1133,-2.4035 -3.6992,-7.5918 -1.586,-5.1891 -2.2961,-7.05432 -1.2981,-10.42737 0.9317,-3.14453 3.2676,-3.55469 5.8625,-3.45898 2.5945,0.0957 5.5703,0.48633 9.1777,3.65039 1.5333,1.3457 1.586,1.82617 2.1153,1.77929 C 52.7906,8.50391 56.1051,6.10156 58.0766,4.70898 60.0465,3.31445 68.0348,-0.015625 70.7613,0 c 1.7625,0.0078125 1.2012,3.60352 -2.7871,6.15039" /><path
       inkscape:connector-curvature="0"
       id="path3774"
       style="fill:#000000;fill-opacity:1;fill-rule:nonzero;stroke:none;stroke-width:0.1"
       d="m 29.4379,19.4594 c 0,0 -0.6133,1.8957 0.0598,3.8183 0.6726,1.9211 1.3425,3.2043 1.6707,3.0051 0.5449,-0.332 0.2089,-1.2461 0.8644,-2.3066 0.4961,-0.8008 0.0965,-3.4602 -0.384,-3.9407 -0.4804,-0.4792 -1.3359,-0.8074 -2.2109,-0.5761" /></g></svg>